<mxfile host="app.diagrams.net" modified="2023-08-09T06:23:39.487Z" agent="Mozilla/5.0 (Windows NT 10.0; Win64; x64) AppleWebKit/537.36 (KHTML, like Gecko) Chrome/115.0.0.0 Safari/537.36" etag="SLOeBGEJUnKJeWAtZmxz" version="21.6.6" type="device">
  <diagram name="Side-1" id="Ua2fHj_qz2R3Z7nBBETl">
    <mxGraphModel dx="3328" dy="1919" grid="1" gridSize="10" guides="1" tooltips="1" connect="1" arrows="1" fold="1" page="1" pageScale="1" pageWidth="827" pageHeight="1169" math="0" shadow="0">
      <root>
        <mxCell id="0" />
        <mxCell id="1" parent="0" />
        <mxCell id="lLKAtSu_kbZPJ85H2VV2-1" value="&lt;span style=&quot;white-space: pre;&quot;&gt;&#x9;&lt;/span&gt;&lt;span style=&quot;white-space: pre;&quot;&gt;&#x9;&lt;span style=&quot;white-space: pre;&quot;&gt;&#x9;&lt;/span&gt;&lt;span style=&quot;white-space: pre;&quot;&gt;&#x9;&lt;/span&gt;&lt;/span&gt;&lt;span style=&quot;white-space: pre;&quot;&gt;&#x9;&lt;/span&gt;artists&lt;span style=&quot;white-space: pre;&quot;&gt;&#x9;&lt;/span&gt;songs&lt;span style=&quot;white-space: pre;&quot;&gt;&#x9;&lt;/span&gt;albums&lt;span style=&quot;white-space: pre;&quot;&gt;&#x9;&lt;/span&gt;&lt;span style=&quot;white-space: pre;&quot;&gt;&#x9;&lt;/span&gt;&lt;span style=&quot;white-space: pre;&quot;&gt;&#x9;&lt;/span&gt;&lt;span style=&quot;white-space: pre;&quot;&gt;&#x9;&lt;/span&gt;Song Requests" style="html=1;shadow=0;dashed=0;shape=mxgraph.bootstrap.rrect;rSize=5;html=1;strokeColor=#C8C8C8;fillColor=#ffffff;whiteSpace=wrap;verticalAlign=top;align=left;fontSize=18;spacing=15;spacingTop=-5;" parent="1" vertex="1">
          <mxGeometry x="-60" y="-320" width="750" height="440" as="geometry" />
        </mxCell>
        <mxCell id="lLKAtSu_kbZPJ85H2VV2-2" value="" style="shape=line;strokeColor=#dddddd;resizeWidth=1;" parent="lLKAtSu_kbZPJ85H2VV2-1" vertex="1">
          <mxGeometry width="750.0000000000001" height="10" relative="1" as="geometry">
            <mxPoint y="50" as="offset" />
          </mxGeometry>
        </mxCell>
        <mxCell id="lLKAtSu_kbZPJ85H2VV2-11" value="&lt;font face=&quot;Comic Sans MS&quot; style=&quot;font-size: 24px;&quot;&gt;Musify&lt;/font&gt;" style="text;html=1;strokeColor=none;fillColor=none;align=center;verticalAlign=middle;whiteSpace=wrap;rounded=0;" parent="lLKAtSu_kbZPJ85H2VV2-1" vertex="1">
          <mxGeometry x="70.94594594594595" y="10.731707317073171" width="121.62162162162163" height="32.19512195121951" as="geometry" />
        </mxCell>
        <mxCell id="lLKAtSu_kbZPJ85H2VV2-10" value="" style="rounded=0;whiteSpace=wrap;html=1;" parent="lLKAtSu_kbZPJ85H2VV2-1" vertex="1">
          <mxGeometry x="20.270270270270274" y="10.731707317073171" width="30.405405405405407" height="32.19512195121951" as="geometry" />
        </mxCell>
        <mxCell id="lLKAtSu_kbZPJ85H2VV2-15" value="" style="rounded=0;whiteSpace=wrap;html=1;" parent="lLKAtSu_kbZPJ85H2VV2-1" vertex="1">
          <mxGeometry x="283.7837837837838" y="96.58536585365854" width="182.43243243243245" height="118.04878048780489" as="geometry" />
        </mxCell>
        <mxCell id="lLKAtSu_kbZPJ85H2VV2-17" value="" style="rounded=0;whiteSpace=wrap;html=1;" parent="lLKAtSu_kbZPJ85H2VV2-1" vertex="1">
          <mxGeometry x="60.810810810810814" y="96.58536585365854" width="182.43243243243245" height="118.04878048780489" as="geometry" />
        </mxCell>
        <mxCell id="lLKAtSu_kbZPJ85H2VV2-18" value="" style="rounded=0;whiteSpace=wrap;html=1;" parent="lLKAtSu_kbZPJ85H2VV2-1" vertex="1">
          <mxGeometry x="506.7567567567568" y="96.58536585365854" width="182.43243243243245" height="118.04878048780489" as="geometry" />
        </mxCell>
        <mxCell id="lLKAtSu_kbZPJ85H2VV2-19" value="" style="rounded=0;whiteSpace=wrap;html=1;" parent="lLKAtSu_kbZPJ85H2VV2-1" vertex="1">
          <mxGeometry x="60.810810810810814" y="279.0243902439025" width="182.43243243243245" height="118.04878048780489" as="geometry" />
        </mxCell>
        <mxCell id="lLKAtSu_kbZPJ85H2VV2-14" value="" style="rounded=0;whiteSpace=wrap;html=1;" parent="lLKAtSu_kbZPJ85H2VV2-1" vertex="1">
          <mxGeometry x="278.71621621621625" y="279.0243902439025" width="192.56756756756758" height="118.04878048780489" as="geometry" />
        </mxCell>
        <mxCell id="lLKAtSu_kbZPJ85H2VV2-16" value="" style="rounded=0;whiteSpace=wrap;html=1;" parent="lLKAtSu_kbZPJ85H2VV2-1" vertex="1">
          <mxGeometry x="506.7567567567568" y="279.0243902439025" width="182.43243243243245" height="118.04878048780489" as="geometry" />
        </mxCell>
        <mxCell id="lLKAtSu_kbZPJ85H2VV2-20" value="&lt;font style=&quot;font-size: 24px;&quot;&gt;Artist picture&lt;/font&gt;" style="text;html=1;strokeColor=none;fillColor=none;align=center;verticalAlign=middle;whiteSpace=wrap;rounded=0;" parent="lLKAtSu_kbZPJ85H2VV2-1" vertex="1">
          <mxGeometry x="81.0810810810811" y="139.51219512195124" width="152.02702702702703" height="32.19512195121951" as="geometry" />
        </mxCell>
        <mxCell id="lLKAtSu_kbZPJ85H2VV2-24" value="&lt;font style=&quot;font-size: 24px;&quot;&gt;Artist picture&lt;/font&gt;" style="text;html=1;strokeColor=none;fillColor=none;align=center;verticalAlign=middle;whiteSpace=wrap;rounded=0;" parent="lLKAtSu_kbZPJ85H2VV2-1" vertex="1">
          <mxGeometry x="298.9864864864865" y="128.78048780487805" width="152.02702702702703" height="32.19512195121951" as="geometry" />
        </mxCell>
        <mxCell id="lLKAtSu_kbZPJ85H2VV2-23" value="&lt;font style=&quot;font-size: 24px;&quot;&gt;Artist picture&lt;/font&gt;" style="text;html=1;strokeColor=none;fillColor=none;align=center;verticalAlign=middle;whiteSpace=wrap;rounded=0;" parent="lLKAtSu_kbZPJ85H2VV2-1" vertex="1">
          <mxGeometry x="521.9594594594595" y="128.78048780487805" width="152.02702702702703" height="32.19512195121951" as="geometry" />
        </mxCell>
        <mxCell id="lLKAtSu_kbZPJ85H2VV2-22" value="&lt;font style=&quot;font-size: 24px;&quot;&gt;Artist picture&lt;/font&gt;" style="text;html=1;strokeColor=none;fillColor=none;align=center;verticalAlign=middle;whiteSpace=wrap;rounded=0;" parent="lLKAtSu_kbZPJ85H2VV2-1" vertex="1">
          <mxGeometry x="76.01351351351352" y="321.9512195121951" width="152.02702702702703" height="32.19512195121951" as="geometry" />
        </mxCell>
        <mxCell id="lLKAtSu_kbZPJ85H2VV2-21" value="&lt;font style=&quot;font-size: 24px;&quot;&gt;Artist picture&lt;/font&gt;" style="text;html=1;strokeColor=none;fillColor=none;align=center;verticalAlign=middle;whiteSpace=wrap;rounded=0;" parent="lLKAtSu_kbZPJ85H2VV2-1" vertex="1">
          <mxGeometry x="298.9864864864865" y="321.9512195121951" width="152.02702702702703" height="32.19512195121951" as="geometry" />
        </mxCell>
        <mxCell id="lLKAtSu_kbZPJ85H2VV2-25" value="&lt;font style=&quot;font-size: 24px;&quot;&gt;Artist picture&lt;/font&gt;" style="text;html=1;strokeColor=none;fillColor=none;align=center;verticalAlign=middle;whiteSpace=wrap;rounded=0;" parent="lLKAtSu_kbZPJ85H2VV2-1" vertex="1">
          <mxGeometry x="521.9594594594595" y="321.9512195121951" width="152.02702702702703" height="32.19512195121951" as="geometry" />
        </mxCell>
        <mxCell id="lLKAtSu_kbZPJ85H2VV2-26" value="&lt;font style=&quot;font-size: 18px;&quot;&gt;Artist Name&lt;/font&gt;" style="text;html=1;strokeColor=none;fillColor=none;align=center;verticalAlign=middle;whiteSpace=wrap;rounded=0;" parent="lLKAtSu_kbZPJ85H2VV2-1" vertex="1">
          <mxGeometry x="60.00081081081081" y="225.3658536585366" width="121.62162162162163" height="32.19512195121951" as="geometry" />
        </mxCell>
        <mxCell id="lLKAtSu_kbZPJ85H2VV2-30" value="&lt;font style=&quot;font-size: 18px;&quot;&gt;Artist Name&lt;/font&gt;" style="text;html=1;strokeColor=none;fillColor=none;align=center;verticalAlign=middle;whiteSpace=wrap;rounded=0;" parent="lLKAtSu_kbZPJ85H2VV2-1" vertex="1">
          <mxGeometry x="283.7837837837838" y="225.3658536585366" width="121.62162162162163" height="32.19512195121951" as="geometry" />
        </mxCell>
        <mxCell id="lLKAtSu_kbZPJ85H2VV2-29" value="&lt;font style=&quot;font-size: 18px;&quot;&gt;Artist Name&lt;/font&gt;" style="text;html=1;strokeColor=none;fillColor=none;align=center;verticalAlign=middle;whiteSpace=wrap;rounded=0;" parent="lLKAtSu_kbZPJ85H2VV2-1" vertex="1">
          <mxGeometry x="506.7567567567568" y="225.3658536585366" width="121.62162162162163" height="32.19512195121951" as="geometry" />
        </mxCell>
        <mxCell id="lLKAtSu_kbZPJ85H2VV2-28" value="&lt;font style=&quot;font-size: 18px;&quot;&gt;Artist Name&lt;/font&gt;" style="text;html=1;strokeColor=none;fillColor=none;align=center;verticalAlign=middle;whiteSpace=wrap;rounded=0;" parent="lLKAtSu_kbZPJ85H2VV2-1" vertex="1">
          <mxGeometry x="60.810810810810814" y="407.8031707317074" width="121.62162162162163" height="32.19512195121951" as="geometry" />
        </mxCell>
        <mxCell id="lLKAtSu_kbZPJ85H2VV2-27" value="&lt;font style=&quot;font-size: 18px;&quot;&gt;Artist Name&lt;/font&gt;" style="text;html=1;strokeColor=none;fillColor=none;align=center;verticalAlign=middle;whiteSpace=wrap;rounded=0;" parent="lLKAtSu_kbZPJ85H2VV2-1" vertex="1">
          <mxGeometry x="278.72" y="407.8" width="120" height="30" as="geometry" />
        </mxCell>
        <mxCell id="lLKAtSu_kbZPJ85H2VV2-31" value="&lt;font style=&quot;font-size: 18px;&quot;&gt;Artist Name&lt;/font&gt;" style="text;html=1;strokeColor=none;fillColor=none;align=center;verticalAlign=middle;whiteSpace=wrap;rounded=0;" parent="lLKAtSu_kbZPJ85H2VV2-1" vertex="1">
          <mxGeometry x="506.76" y="407.8" width="120" height="30" as="geometry" />
        </mxCell>
        <mxCell id="lLKAtSu_kbZPJ85H2VV2-148" style="edgeStyle=orthogonalEdgeStyle;rounded=0;orthogonalLoop=1;jettySize=auto;html=1;exitX=1;exitY=0.75;exitDx=0;exitDy=0;entryX=1;entryY=0.5;entryDx=0;entryDy=0;" parent="lLKAtSu_kbZPJ85H2VV2-1" source="lLKAtSu_kbZPJ85H2VV2-26" target="lLKAtSu_kbZPJ85H2VV2-26" edge="1">
          <mxGeometry relative="1" as="geometry" />
        </mxCell>
        <mxCell id="lLKAtSu_kbZPJ85H2VV2-9" value="&lt;font style=&quot;font-size: 48px;&quot;&gt;Artists&lt;/font&gt;" style="text;html=1;strokeColor=none;fillColor=none;align=center;verticalAlign=middle;whiteSpace=wrap;rounded=0;" parent="1" vertex="1">
          <mxGeometry x="-130" y="-410" width="270" height="110" as="geometry" />
        </mxCell>
        <mxCell id="lLKAtSu_kbZPJ85H2VV2-57" value="&lt;span style=&quot;white-space: pre;&quot;&gt;&#x9;&lt;/span&gt;&lt;span style=&quot;white-space: pre;&quot;&gt;&#x9;&lt;span style=&quot;white-space: pre;&quot;&gt;&#x9;&lt;/span&gt;&lt;span style=&quot;white-space: pre;&quot;&gt;&#x9;&lt;/span&gt;&lt;/span&gt;&lt;span style=&quot;white-space: pre;&quot;&gt;&#x9;&lt;/span&gt;artists&lt;span style=&quot;white-space: pre;&quot;&gt;&#x9;&lt;/span&gt;songs&lt;span style=&quot;white-space: pre;&quot;&gt;&#x9;&lt;/span&gt;albums&lt;span style=&quot;white-space: pre;&quot;&gt;&#x9;&lt;/span&gt;&lt;span style=&quot;white-space: pre;&quot;&gt;&#x9;&lt;/span&gt;&lt;span style=&quot;white-space: pre;&quot;&gt;&#x9;&lt;/span&gt;&lt;span style=&quot;white-space: pre;&quot;&gt;&#x9;&lt;/span&gt;Song Requests" style="html=1;shadow=0;dashed=0;shape=mxgraph.bootstrap.rrect;rSize=5;html=1;strokeColor=#C8C8C8;fillColor=#ffffff;whiteSpace=wrap;verticalAlign=top;align=left;fontSize=18;spacing=15;spacingTop=-5;" parent="1" vertex="1">
          <mxGeometry x="890" y="-320" width="750" height="440" as="geometry" />
        </mxCell>
        <mxCell id="lLKAtSu_kbZPJ85H2VV2-58" value="" style="shape=line;strokeColor=#dddddd;resizeWidth=1;" parent="lLKAtSu_kbZPJ85H2VV2-57" vertex="1">
          <mxGeometry width="750.0000000000001" height="10" relative="1" as="geometry">
            <mxPoint y="50" as="offset" />
          </mxGeometry>
        </mxCell>
        <mxCell id="lLKAtSu_kbZPJ85H2VV2-59" value="&lt;font face=&quot;Comic Sans MS&quot; style=&quot;font-size: 24px;&quot;&gt;Musify&lt;/font&gt;" style="text;html=1;strokeColor=none;fillColor=none;align=center;verticalAlign=middle;whiteSpace=wrap;rounded=0;" parent="lLKAtSu_kbZPJ85H2VV2-57" vertex="1">
          <mxGeometry x="70.94594594594595" y="10.731707317073171" width="121.62162162162163" height="32.19512195121951" as="geometry" />
        </mxCell>
        <mxCell id="lLKAtSu_kbZPJ85H2VV2-60" value="" style="rounded=0;whiteSpace=wrap;html=1;" parent="lLKAtSu_kbZPJ85H2VV2-57" vertex="1">
          <mxGeometry x="20.270270270270274" y="10.731707317073171" width="30.405405405405407" height="32.19512195121951" as="geometry" />
        </mxCell>
        <mxCell id="lLKAtSu_kbZPJ85H2VV2-83" value="" style="shape=rect;fillColor=#F6F6F6;strokeColor=none;" parent="lLKAtSu_kbZPJ85H2VV2-57" vertex="1">
          <mxGeometry x="186.5" y="110" width="377" height="39" as="geometry" />
        </mxCell>
        <mxCell id="lLKAtSu_kbZPJ85H2VV2-84" value="" style="html=1;strokeWidth=1;shadow=0;dashed=0;shape=mxgraph.ios7ui.marginRect;rx=3;ry=3;rectMargin=5;fillColor=#E4E4E4;strokeColor=none;" parent="lLKAtSu_kbZPJ85H2VV2-83" vertex="1">
          <mxGeometry width="377" height="39" as="geometry" />
        </mxCell>
        <mxCell id="lLKAtSu_kbZPJ85H2VV2-85" value="&lt;font style=&quot;font-size: 14px;&quot;&gt;Search&lt;/font&gt;" style="shape=mxgraph.ios7.icons.looking_glass;strokeColor=#878789;fillColor=none;fontColor=#878789;labelPosition=right;verticalLabelPosition=middle;align=left;verticalAlign=middle;fontSize=6;fontStyle=0;spacingTop=2;sketch=0;html=1;" parent="lLKAtSu_kbZPJ85H2VV2-83" vertex="1">
          <mxGeometry x="0.5" y="0.5" width="27" height="27.5" relative="1" as="geometry">
            <mxPoint x="-24" y="-14" as="offset" />
          </mxGeometry>
        </mxCell>
        <mxCell id="lLKAtSu_kbZPJ85H2VV2-87" value="" style="html=1;shadow=0;dashed=0;shape=mxgraph.bootstrap.rrect;rSize=5;strokeColor=#DFDFDF;html=1;whiteSpace=wrap;fillColor=#FFFFFF;fontColor=#000000;" parent="lLKAtSu_kbZPJ85H2VV2-57" vertex="1">
          <mxGeometry x="193" y="149" width="367" height="120" as="geometry" />
        </mxCell>
        <mxCell id="lLKAtSu_kbZPJ85H2VV2-88" value="Cras justo odio" style="strokeColor=inherit;fillColor=inherit;gradientColor=inherit;fontColor=inherit;html=1;shadow=0;dashed=0;shape=mxgraph.bootstrap.topButton;rSize=5;perimeter=none;whiteSpace=wrap;resizeWidth=1;align=left;spacing=10;" parent="lLKAtSu_kbZPJ85H2VV2-87" vertex="1">
          <mxGeometry width="367" height="40" relative="1" as="geometry" />
        </mxCell>
        <mxCell id="lLKAtSu_kbZPJ85H2VV2-89" value="14" style="strokeColor=inherit;fillColor=inherit;gradientColor=inherit;fontColor=inherit;html=1;shadow=0;dashed=0;shape=mxgraph.bootstrap.rrect;rSize=8;fillColor=#0085FC;strokeColor=none;fontColor=#ffffff;whiteSpace=wrap;" parent="lLKAtSu_kbZPJ85H2VV2-88" vertex="1">
          <mxGeometry x="1" y="0.5" width="25" height="16" relative="1" as="geometry">
            <mxPoint x="-40" y="-8" as="offset" />
          </mxGeometry>
        </mxCell>
        <mxCell id="lLKAtSu_kbZPJ85H2VV2-90" value="Dapibus ac facilisis in" style="strokeColor=inherit;fillColor=inherit;gradientColor=inherit;fontColor=inherit;html=1;shadow=0;dashed=0;perimeter=none;whiteSpace=wrap;resizeWidth=1;align=left;spacing=10;" parent="lLKAtSu_kbZPJ85H2VV2-87" vertex="1">
          <mxGeometry width="367" height="40" relative="1" as="geometry">
            <mxPoint y="40" as="offset" />
          </mxGeometry>
        </mxCell>
        <mxCell id="lLKAtSu_kbZPJ85H2VV2-91" value="2" style="strokeColor=inherit;fillColor=inherit;gradientColor=inherit;fontColor=inherit;html=1;shadow=0;dashed=0;shape=mxgraph.bootstrap.rrect;rSize=8;fillColor=#0085FC;strokeColor=none;fontColor=#ffffff;whiteSpace=wrap;" parent="lLKAtSu_kbZPJ85H2VV2-90" vertex="1">
          <mxGeometry x="1" y="0.5" width="20" height="16" relative="1" as="geometry">
            <mxPoint x="-38" y="-8" as="offset" />
          </mxGeometry>
        </mxCell>
        <mxCell id="lLKAtSu_kbZPJ85H2VV2-92" value="Morbi leo risus" style="strokeColor=inherit;fillColor=inherit;gradientColor=inherit;fontColor=inherit;html=1;shadow=0;dashed=0;shape=mxgraph.bootstrap.bottomButton;rSize=5;perimeter=none;whiteSpace=wrap;resizeWidth=1;resizeHeight=0;align=left;spacing=10;" parent="lLKAtSu_kbZPJ85H2VV2-87" vertex="1">
          <mxGeometry y="1" width="367" height="40" relative="1" as="geometry">
            <mxPoint y="-40" as="offset" />
          </mxGeometry>
        </mxCell>
        <mxCell id="lLKAtSu_kbZPJ85H2VV2-93" value="1" style="strokeColor=inherit;fillColor=inherit;gradientColor=inherit;fontColor=inherit;html=1;shadow=0;dashed=0;shape=mxgraph.bootstrap.rrect;rSize=8;fillColor=#0085FC;strokeColor=none;fontColor=#ffffff;whiteSpace=wrap;" parent="lLKAtSu_kbZPJ85H2VV2-92" vertex="1">
          <mxGeometry x="1" y="0.5" width="20" height="16" relative="1" as="geometry">
            <mxPoint x="-38" y="-8" as="offset" />
          </mxGeometry>
        </mxCell>
        <mxCell id="lLKAtSu_kbZPJ85H2VV2-79" value="&lt;font style=&quot;font-size: 48px;&quot;&gt;songs&lt;/font&gt;" style="text;html=1;strokeColor=none;fillColor=none;align=center;verticalAlign=middle;whiteSpace=wrap;rounded=0;" parent="1" vertex="1">
          <mxGeometry x="827" y="-410" width="270" height="110" as="geometry" />
        </mxCell>
        <mxCell id="lLKAtSu_kbZPJ85H2VV2-95" value="&lt;span style=&quot;white-space: pre;&quot;&gt;&#x9;&lt;/span&gt;&lt;span style=&quot;white-space: pre;&quot;&gt;&#x9;&lt;span style=&quot;white-space: pre;&quot;&gt;&#x9;&lt;/span&gt;&lt;span style=&quot;white-space: pre;&quot;&gt;&#x9;&lt;/span&gt;&lt;/span&gt;&lt;span style=&quot;white-space: pre;&quot;&gt;&#x9;&lt;/span&gt;artists&lt;span style=&quot;white-space: pre;&quot;&gt;&#x9;&lt;/span&gt;songs&lt;span style=&quot;white-space: pre;&quot;&gt;&#x9;&lt;/span&gt;albums&lt;span style=&quot;white-space: pre;&quot;&gt;&#x9;&lt;/span&gt;&lt;span style=&quot;white-space: pre;&quot;&gt;&#x9;&lt;/span&gt;&lt;span style=&quot;white-space: pre;&quot;&gt;&#x9;&lt;/span&gt;&lt;span style=&quot;white-space: pre;&quot;&gt;&#x9;&lt;/span&gt;Song Requests" style="html=1;shadow=0;dashed=0;shape=mxgraph.bootstrap.rrect;rSize=5;html=1;strokeColor=#C8C8C8;fillColor=#ffffff;whiteSpace=wrap;verticalAlign=top;align=left;fontSize=18;spacing=15;spacingTop=-5;" parent="1" vertex="1">
          <mxGeometry x="2760" y="-310" width="880" height="560" as="geometry" />
        </mxCell>
        <mxCell id="lLKAtSu_kbZPJ85H2VV2-96" value="" style="shape=line;strokeColor=#dddddd;resizeWidth=1;" parent="lLKAtSu_kbZPJ85H2VV2-95" vertex="1">
          <mxGeometry width="623.5955056179777" height="10" relative="1" as="geometry">
            <mxPoint y="50" as="offset" />
          </mxGeometry>
        </mxCell>
        <mxCell id="lLKAtSu_kbZPJ85H2VV2-97" value="&lt;font face=&quot;Comic Sans MS&quot; style=&quot;font-size: 24px;&quot;&gt;Musify&lt;/font&gt;" style="text;html=1;strokeColor=none;fillColor=none;align=center;verticalAlign=middle;whiteSpace=wrap;rounded=0;" parent="lLKAtSu_kbZPJ85H2VV2-95" vertex="1">
          <mxGeometry x="58.98876404494383" y="10.203321048490624" width="101.12359550561798" height="30.609963145471866" as="geometry" />
        </mxCell>
        <mxCell id="lLKAtSu_kbZPJ85H2VV2-98" value="" style="rounded=0;whiteSpace=wrap;html=1;" parent="lLKAtSu_kbZPJ85H2VV2-95" vertex="1">
          <mxGeometry x="16.85370786516854" y="10.197209302325582" width="25.284719101123596" height="41.89581395348838" as="geometry" />
        </mxCell>
        <mxCell id="YLMU03lh9qMk4fozmKOO-18" value="Example input placeholder" style="html=1;shadow=0;dashed=0;shape=mxgraph.bootstrap.rrect;rSize=5;fillColor=none;strokeColor=#999999;align=left;spacing=15;fontSize=14;fontColor=#6C767D;" vertex="1" parent="lLKAtSu_kbZPJ85H2VV2-95">
          <mxGeometry width="800" height="30" relative="1" as="geometry">
            <mxPoint x="3530" y="-30" as="offset" />
          </mxGeometry>
        </mxCell>
        <mxCell id="YLMU03lh9qMk4fozmKOO-19" value="Another label" style="fillColor=none;strokeColor=none;align=left;fontSize=14;fontColor=#212529;" vertex="1" parent="lLKAtSu_kbZPJ85H2VV2-95">
          <mxGeometry width="260" height="40" relative="1" as="geometry">
            <mxPoint x="3540" y="-3" as="offset" />
          </mxGeometry>
        </mxCell>
        <mxCell id="YLMU03lh9qMk4fozmKOO-38" value="Song Name" style="fillColor=none;strokeColor=none;align=left;fontSize=14;fontColor=#212529;" vertex="1" parent="lLKAtSu_kbZPJ85H2VV2-95">
          <mxGeometry x="42" y="66.4186046511628" width="400" height="39.06976744186047" as="geometry" />
        </mxCell>
        <mxCell id="YLMU03lh9qMk4fozmKOO-39" value="" style="html=1;shadow=0;dashed=0;shape=mxgraph.bootstrap.rrect;rSize=5;fillColor=none;strokeColor=#999999;align=left;spacing=15;fontSize=14;fontColor=#6C767D;" vertex="1" parent="lLKAtSu_kbZPJ85H2VV2-95">
          <mxGeometry x="42" y="105.48837209302326" width="395" height="39.06976744186047" as="geometry" />
        </mxCell>
        <mxCell id="YLMU03lh9qMk4fozmKOO-40" value="Artist Name" style="fillColor=none;strokeColor=none;align=left;fontSize=14;fontColor=#212529;" vertex="1" parent="lLKAtSu_kbZPJ85H2VV2-95">
          <mxGeometry x="442" y="66.4186046511628" width="400" height="39.06976744186047" as="geometry" />
        </mxCell>
        <mxCell id="YLMU03lh9qMk4fozmKOO-41" value="" style="html=1;shadow=0;dashed=0;shape=mxgraph.bootstrap.rrect;rSize=5;fillColor=none;strokeColor=#999999;align=left;spacing=15;fontSize=14;fontColor=#6C767D;" vertex="1" parent="lLKAtSu_kbZPJ85H2VV2-95">
          <mxGeometry x="447" y="105.48837209302326" width="395" height="39.06976744186047" as="geometry" />
        </mxCell>
        <mxCell id="YLMU03lh9qMk4fozmKOO-42" value="Email" style="fillColor=none;strokeColor=none;align=left;fontSize=14;fontColor=#212529;" vertex="1" parent="lLKAtSu_kbZPJ85H2VV2-95">
          <mxGeometry x="42" y="157.58139534883722" width="390" height="39.06976744186047" as="geometry" />
        </mxCell>
        <mxCell id="YLMU03lh9qMk4fozmKOO-43" value="example@email.com" style="html=1;shadow=0;dashed=0;shape=mxgraph.bootstrap.rrect;rSize=5;fillColor=none;strokeColor=#999999;align=left;spacing=15;fontSize=14;fontColor=#6C767D;" vertex="1" parent="lLKAtSu_kbZPJ85H2VV2-95">
          <mxGeometry x="42" y="196.6511627906977" width="800" height="39.06976744186047" as="geometry" />
        </mxCell>
        <mxCell id="YLMU03lh9qMk4fozmKOO-54" value="Sign in" style="html=1;shadow=0;dashed=0;shape=mxgraph.bootstrap.rrect;rSize=5;fillColor=#0085FC;strokeColor=none;align=center;fontSize=14;fontColor=#FFFFFF;" vertex="1" parent="lLKAtSu_kbZPJ85H2VV2-95">
          <mxGeometry x="42" y="280.0027906976744" width="70" height="52.09302325581396" as="geometry" />
        </mxCell>
        <mxCell id="lLKAtSu_kbZPJ85H2VV2-109" value="&lt;font style=&quot;font-size: 48px;&quot;&gt;albums&lt;/font&gt;" style="text;html=1;strokeColor=none;fillColor=none;align=center;verticalAlign=middle;whiteSpace=wrap;rounded=0;" parent="1" vertex="1">
          <mxGeometry x="1790" y="-410" width="270" height="110" as="geometry" />
        </mxCell>
        <mxCell id="lLKAtSu_kbZPJ85H2VV2-110" value="" style="shape=flexArrow;endArrow=classic;html=1;rounded=0;exitX=0.475;exitY=1.011;exitDx=0;exitDy=0;exitPerimeter=0;" parent="1" source="lLKAtSu_kbZPJ85H2VV2-111" edge="1">
          <mxGeometry width="50" height="50" relative="1" as="geometry">
            <mxPoint x="2260" y="170" as="sourcePoint" />
            <mxPoint x="2198" y="290" as="targetPoint" />
            <Array as="points">
              <mxPoint x="2198" y="200" />
            </Array>
          </mxGeometry>
        </mxCell>
        <mxCell id="lLKAtSu_kbZPJ85H2VV2-125" value="&lt;span style=&quot;white-space: pre;&quot;&gt;&#x9;&lt;/span&gt;&lt;span style=&quot;white-space: pre;&quot;&gt;&#x9;&lt;/span&gt;&lt;span style=&quot;white-space: pre;&quot;&gt;&#x9;&lt;/span&gt;&lt;span style=&quot;white-space: pre;&quot;&gt;&#x9;&lt;/span&gt;&lt;span style=&quot;white-space: pre;&quot;&gt;&#x9;&lt;/span&gt;artists&lt;span style=&quot;white-space: pre;&quot;&gt;&#x9;&lt;/span&gt;songs&lt;span style=&quot;white-space: pre;&quot;&gt;&#x9;&lt;/span&gt;albums&lt;span style=&quot;white-space: pre;&quot;&gt;&#x9;&lt;/span&gt;&lt;span style=&quot;white-space: pre;&quot;&gt;&#x9;&lt;/span&gt;&lt;span style=&quot;white-space: pre;&quot;&gt;&#x9;&lt;/span&gt;&lt;span style=&quot;white-space: pre;&quot;&gt;&#x9;&lt;/span&gt;song requests" style="html=1;shadow=0;dashed=0;shape=mxgraph.bootstrap.rrect;rSize=5;html=1;strokeColor=#C8C8C8;fillColor=#ffffff;whiteSpace=wrap;verticalAlign=top;align=left;fontSize=18;spacing=15;spacingTop=-5;" parent="1" vertex="1">
          <mxGeometry x="1830" y="285.8" width="750" height="440" as="geometry" />
        </mxCell>
        <mxCell id="lLKAtSu_kbZPJ85H2VV2-126" value="" style="shape=line;strokeColor=#dddddd;resizeWidth=1;" parent="lLKAtSu_kbZPJ85H2VV2-125" vertex="1">
          <mxGeometry width="750.0000000000001" height="10" relative="1" as="geometry">
            <mxPoint y="50" as="offset" />
          </mxGeometry>
        </mxCell>
        <mxCell id="lLKAtSu_kbZPJ85H2VV2-127" value="&lt;font face=&quot;Comic Sans MS&quot; style=&quot;font-size: 24px;&quot;&gt;Musify&lt;/font&gt;" style="text;html=1;strokeColor=none;fillColor=none;align=center;verticalAlign=middle;whiteSpace=wrap;rounded=0;" parent="lLKAtSu_kbZPJ85H2VV2-125" vertex="1">
          <mxGeometry x="70.94594594594595" y="10.731707317073171" width="121.62162162162163" height="32.19512195121951" as="geometry" />
        </mxCell>
        <mxCell id="lLKAtSu_kbZPJ85H2VV2-128" value="" style="rounded=0;whiteSpace=wrap;html=1;" parent="lLKAtSu_kbZPJ85H2VV2-125" vertex="1">
          <mxGeometry x="20.270270270270274" y="10.731707317073171" width="30.405405405405407" height="32.19512195121951" as="geometry" />
        </mxCell>
        <mxCell id="lLKAtSu_kbZPJ85H2VV2-139" value="&lt;font style=&quot;font-size: 24px;&quot;&gt;Seal The Deal &amp;amp; Let&#39;s Boogie&lt;/font&gt;" style="text;html=1;strokeColor=none;fillColor=none;align=center;verticalAlign=middle;whiteSpace=wrap;rounded=0;" parent="lLKAtSu_kbZPJ85H2VV2-125" vertex="1">
          <mxGeometry x="-120" y="70" width="630" height="30" as="geometry" />
        </mxCell>
        <mxCell id="lLKAtSu_kbZPJ85H2VV2-132" value="" style="html=1;shadow=0;dashed=0;shape=mxgraph.bootstrap.rrect;rSize=5;strokeColor=#DFDFDF;html=1;whiteSpace=wrap;fillColor=#FFFFFF;fontColor=#000000;" parent="lLKAtSu_kbZPJ85H2VV2-125" vertex="1">
          <mxGeometry x="30" y="110" width="367" height="120" as="geometry" />
        </mxCell>
        <mxCell id="lLKAtSu_kbZPJ85H2VV2-133" value="&lt;blockquote style=&quot;margin: 0 0 0 40px; border: none; padding: 0px;&quot;&gt;The Devils Bleeding Crown&lt;/blockquote&gt;" style="strokeColor=inherit;fillColor=inherit;gradientColor=inherit;fontColor=inherit;html=1;shadow=0;dashed=0;shape=mxgraph.bootstrap.topButton;rSize=5;perimeter=none;whiteSpace=wrap;resizeWidth=1;align=left;spacing=10;" parent="lLKAtSu_kbZPJ85H2VV2-132" vertex="1">
          <mxGeometry width="367" height="40" relative="1" as="geometry" />
        </mxCell>
        <mxCell id="lLKAtSu_kbZPJ85H2VV2-134" value="1" style="strokeColor=inherit;fillColor=inherit;gradientColor=inherit;fontColor=inherit;html=1;shadow=0;dashed=0;shape=mxgraph.bootstrap.rrect;rSize=8;fillColor=#0085FC;strokeColor=none;fontColor=#ffffff;whiteSpace=wrap;" parent="lLKAtSu_kbZPJ85H2VV2-133" vertex="1">
          <mxGeometry x="1" y="0.5" width="25" height="16" relative="1" as="geometry">
            <mxPoint x="-357" y="-9" as="offset" />
          </mxGeometry>
        </mxCell>
        <mxCell id="lLKAtSu_kbZPJ85H2VV2-135" value="&lt;span style=&quot;&quot;&gt;&lt;span style=&quot;white-space: pre;&quot;&gt;&amp;nbsp;&amp;nbsp;&amp;nbsp;&amp;nbsp;&lt;/span&gt;&lt;/span&gt;&amp;nbsp; &amp;nbsp; &amp;nbsp; &amp;nbsp; Marie Laveau" style="strokeColor=inherit;fillColor=inherit;gradientColor=inherit;fontColor=inherit;html=1;shadow=0;dashed=0;perimeter=none;whiteSpace=wrap;resizeWidth=1;align=left;spacing=10;" parent="lLKAtSu_kbZPJ85H2VV2-132" vertex="1">
          <mxGeometry width="367" height="40" relative="1" as="geometry">
            <mxPoint y="40" as="offset" />
          </mxGeometry>
        </mxCell>
        <mxCell id="lLKAtSu_kbZPJ85H2VV2-136" value="2" style="strokeColor=inherit;fillColor=inherit;gradientColor=inherit;fontColor=inherit;html=1;shadow=0;dashed=0;shape=mxgraph.bootstrap.rrect;rSize=8;fillColor=#0085FC;strokeColor=none;fontColor=#ffffff;whiteSpace=wrap;" parent="lLKAtSu_kbZPJ85H2VV2-135" vertex="1">
          <mxGeometry x="1" y="0.5" width="31" height="16" relative="1" as="geometry">
            <mxPoint x="-361" y="-8" as="offset" />
          </mxGeometry>
        </mxCell>
        <mxCell id="lLKAtSu_kbZPJ85H2VV2-137" value="&lt;span style=&quot;white-space: pre;&quot;&gt;&#x9;&lt;/span&gt;&amp;nbsp; &amp;nbsp; For Evigt" style="strokeColor=inherit;fillColor=inherit;gradientColor=inherit;fontColor=inherit;html=1;shadow=0;dashed=0;shape=mxgraph.bootstrap.bottomButton;rSize=5;perimeter=none;whiteSpace=wrap;resizeWidth=1;resizeHeight=0;align=left;spacing=10;" parent="lLKAtSu_kbZPJ85H2VV2-132" vertex="1">
          <mxGeometry y="1" width="367" height="40" relative="1" as="geometry">
            <mxPoint y="-40" as="offset" />
          </mxGeometry>
        </mxCell>
        <mxCell id="lLKAtSu_kbZPJ85H2VV2-138" value="3" style="strokeColor=inherit;fillColor=inherit;gradientColor=inherit;fontColor=inherit;html=1;shadow=0;dashed=0;shape=mxgraph.bootstrap.rrect;rSize=8;fillColor=#0085FC;strokeColor=none;fontColor=#ffffff;whiteSpace=wrap;" parent="lLKAtSu_kbZPJ85H2VV2-137" vertex="1">
          <mxGeometry x="1" y="0.5" width="29" height="16" relative="1" as="geometry">
            <mxPoint x="-360" y="-8" as="offset" />
          </mxGeometry>
        </mxCell>
        <mxCell id="lLKAtSu_kbZPJ85H2VV2-140" value="" style="dashed=0;outlineConnect=0;html=1;align=center;labelPosition=center;verticalLabelPosition=bottom;verticalAlign=top;shape=mxgraph.weblogos.youtube;fillColor=#FF2626;gradientColor=#B5171F" parent="1" vertex="1">
          <mxGeometry x="1160" y="160" width="220" height="105.8" as="geometry" />
        </mxCell>
        <mxCell id="lLKAtSu_kbZPJ85H2VV2-143" value="" style="edgeStyle=elbowEdgeStyle;elbow=horizontal;endArrow=classic;html=1;curved=0;rounded=0;endSize=8;startSize=8;exitX=1.01;exitY=0.775;exitDx=0;exitDy=0;exitPerimeter=0;" parent="1" source="lLKAtSu_kbZPJ85H2VV2-137" edge="1">
          <mxGeometry width="50" height="50" relative="1" as="geometry">
            <mxPoint x="2580" y="700" as="sourcePoint" />
            <mxPoint x="2640" y="650" as="targetPoint" />
          </mxGeometry>
        </mxCell>
        <mxCell id="lLKAtSu_kbZPJ85H2VV2-111" value="&lt;span style=&quot;white-space: pre;&quot;&gt;&#x9;&lt;/span&gt;&lt;span style=&quot;white-space: pre;&quot;&gt;&#x9;&lt;span style=&quot;white-space: pre;&quot;&gt;&#x9;&lt;/span&gt;&lt;span style=&quot;white-space: pre;&quot;&gt;&#x9;&lt;/span&gt;&lt;/span&gt;&lt;span style=&quot;white-space: pre;&quot;&gt;&#x9;&lt;/span&gt;artists&lt;span style=&quot;white-space: pre;&quot;&gt;&#x9;&lt;/span&gt;songs&lt;span style=&quot;white-space: pre;&quot;&gt;&#x9;&lt;/span&gt;albums&lt;span style=&quot;white-space: pre;&quot;&gt;&#x9;&lt;/span&gt;&lt;span style=&quot;white-space: pre;&quot;&gt;&#x9;&lt;/span&gt;&lt;span style=&quot;white-space: pre;&quot;&gt;&#x9;&lt;/span&gt;&lt;span style=&quot;white-space: pre;&quot;&gt;&#x9;&lt;/span&gt;Song Requests" style="html=1;shadow=0;dashed=0;shape=mxgraph.bootstrap.rrect;rSize=5;html=1;strokeColor=#C8C8C8;fillColor=#ffffff;whiteSpace=wrap;verticalAlign=top;align=left;fontSize=18;spacing=15;spacingTop=-5;" parent="1" vertex="1">
          <mxGeometry x="1840" y="-320" width="750" height="440" as="geometry" />
        </mxCell>
        <mxCell id="lLKAtSu_kbZPJ85H2VV2-112" value="" style="shape=line;strokeColor=#dddddd;resizeWidth=1;" parent="lLKAtSu_kbZPJ85H2VV2-111" vertex="1">
          <mxGeometry width="750.0000000000001" height="10" relative="1" as="geometry">
            <mxPoint y="50" as="offset" />
          </mxGeometry>
        </mxCell>
        <mxCell id="lLKAtSu_kbZPJ85H2VV2-113" value="&lt;font face=&quot;Comic Sans MS&quot; style=&quot;font-size: 24px;&quot;&gt;Musify&lt;/font&gt;" style="text;html=1;strokeColor=none;fillColor=none;align=center;verticalAlign=middle;whiteSpace=wrap;rounded=0;" parent="lLKAtSu_kbZPJ85H2VV2-111" vertex="1">
          <mxGeometry x="70.94594594594595" y="10.731707317073171" width="121.62162162162163" height="32.19512195121951" as="geometry" />
        </mxCell>
        <mxCell id="lLKAtSu_kbZPJ85H2VV2-114" value="" style="rounded=0;whiteSpace=wrap;html=1;" parent="lLKAtSu_kbZPJ85H2VV2-111" vertex="1">
          <mxGeometry x="20.270270270270274" y="10.731707317073171" width="30.405405405405407" height="32.19512195121951" as="geometry" />
        </mxCell>
        <mxCell id="lLKAtSu_kbZPJ85H2VV2-115" value="" style="shape=rect;fillColor=#F6F6F6;strokeColor=none;" parent="lLKAtSu_kbZPJ85H2VV2-111" vertex="1">
          <mxGeometry x="186.5" y="110" width="377" height="39" as="geometry" />
        </mxCell>
        <mxCell id="lLKAtSu_kbZPJ85H2VV2-116" value="" style="html=1;strokeWidth=1;shadow=0;dashed=0;shape=mxgraph.ios7ui.marginRect;rx=3;ry=3;rectMargin=5;fillColor=#E4E4E4;strokeColor=none;" parent="lLKAtSu_kbZPJ85H2VV2-115" vertex="1">
          <mxGeometry width="377" height="39" as="geometry" />
        </mxCell>
        <mxCell id="lLKAtSu_kbZPJ85H2VV2-117" value="&lt;font style=&quot;font-size: 14px;&quot;&gt;Search&lt;/font&gt;" style="shape=mxgraph.ios7.icons.looking_glass;strokeColor=#878789;fillColor=none;fontColor=#878789;labelPosition=right;verticalLabelPosition=middle;align=left;verticalAlign=middle;fontSize=6;fontStyle=0;spacingTop=2;sketch=0;html=1;" parent="lLKAtSu_kbZPJ85H2VV2-115" vertex="1">
          <mxGeometry x="0.5" y="0.5" width="27" height="27.5" relative="1" as="geometry">
            <mxPoint x="-24" y="-14" as="offset" />
          </mxGeometry>
        </mxCell>
        <mxCell id="lLKAtSu_kbZPJ85H2VV2-118" value="" style="html=1;shadow=0;dashed=0;shape=mxgraph.bootstrap.rrect;rSize=5;strokeColor=#DFDFDF;html=1;whiteSpace=wrap;fillColor=#FFFFFF;fontColor=#000000;" parent="lLKAtSu_kbZPJ85H2VV2-111" vertex="1">
          <mxGeometry x="193" y="149" width="367" height="120" as="geometry" />
        </mxCell>
        <mxCell id="lLKAtSu_kbZPJ85H2VV2-119" value="Servant Of The Mind" style="strokeColor=inherit;fillColor=inherit;gradientColor=inherit;fontColor=inherit;html=1;shadow=0;dashed=0;shape=mxgraph.bootstrap.topButton;rSize=5;perimeter=none;whiteSpace=wrap;resizeWidth=1;align=left;spacing=10;" parent="lLKAtSu_kbZPJ85H2VV2-118" vertex="1">
          <mxGeometry width="367" height="40" relative="1" as="geometry" />
        </mxCell>
        <mxCell id="lLKAtSu_kbZPJ85H2VV2-120" value="14" style="strokeColor=inherit;fillColor=inherit;gradientColor=inherit;fontColor=inherit;html=1;shadow=0;dashed=0;shape=mxgraph.bootstrap.rrect;rSize=8;fillColor=#0085FC;strokeColor=none;fontColor=#ffffff;whiteSpace=wrap;" parent="lLKAtSu_kbZPJ85H2VV2-119" vertex="1">
          <mxGeometry x="1" y="0.5" width="25" height="16" relative="1" as="geometry">
            <mxPoint x="-40" y="-8" as="offset" />
          </mxGeometry>
        </mxCell>
        <mxCell id="lLKAtSu_kbZPJ85H2VV2-121" value="The Black Album" style="strokeColor=inherit;fillColor=inherit;gradientColor=inherit;fontColor=inherit;html=1;shadow=0;dashed=0;perimeter=none;whiteSpace=wrap;resizeWidth=1;align=left;spacing=10;" parent="lLKAtSu_kbZPJ85H2VV2-118" vertex="1">
          <mxGeometry width="367" height="40" relative="1" as="geometry">
            <mxPoint y="40" as="offset" />
          </mxGeometry>
        </mxCell>
        <mxCell id="lLKAtSu_kbZPJ85H2VV2-122" value="2" style="strokeColor=inherit;fillColor=inherit;gradientColor=inherit;fontColor=inherit;html=1;shadow=0;dashed=0;shape=mxgraph.bootstrap.rrect;rSize=8;fillColor=#0085FC;strokeColor=none;fontColor=#ffffff;whiteSpace=wrap;" parent="lLKAtSu_kbZPJ85H2VV2-121" vertex="1">
          <mxGeometry x="1" y="0.5" width="20" height="16" relative="1" as="geometry">
            <mxPoint x="-38" y="-8" as="offset" />
          </mxGeometry>
        </mxCell>
        <mxCell id="lLKAtSu_kbZPJ85H2VV2-123" value="The Call Of The Wild" style="strokeColor=inherit;fillColor=inherit;gradientColor=inherit;fontColor=inherit;html=1;shadow=0;dashed=0;shape=mxgraph.bootstrap.bottomButton;rSize=5;perimeter=none;whiteSpace=wrap;resizeWidth=1;resizeHeight=0;align=left;spacing=10;" parent="lLKAtSu_kbZPJ85H2VV2-118" vertex="1">
          <mxGeometry y="1" width="367" height="40" relative="1" as="geometry">
            <mxPoint y="-40" as="offset" />
          </mxGeometry>
        </mxCell>
        <mxCell id="lLKAtSu_kbZPJ85H2VV2-124" value="1" style="strokeColor=inherit;fillColor=inherit;gradientColor=inherit;fontColor=inherit;html=1;shadow=0;dashed=0;shape=mxgraph.bootstrap.rrect;rSize=8;fillColor=#0085FC;strokeColor=none;fontColor=#ffffff;whiteSpace=wrap;" parent="lLKAtSu_kbZPJ85H2VV2-123" vertex="1">
          <mxGeometry x="1" y="0.5" width="20" height="16" relative="1" as="geometry">
            <mxPoint x="-38" y="-8" as="offset" />
          </mxGeometry>
        </mxCell>
        <mxCell id="lLKAtSu_kbZPJ85H2VV2-145" value="" style="dashed=0;outlineConnect=0;html=1;align=center;labelPosition=center;verticalLabelPosition=bottom;verticalAlign=top;shape=mxgraph.weblogos.youtube;fillColor=#FF2626;gradientColor=#B5171F" parent="1" vertex="1">
          <mxGeometry x="2650" y="620" width="220" height="105.8" as="geometry" />
        </mxCell>
        <mxCell id="lLKAtSu_kbZPJ85H2VV2-146" value="" style="endArrow=classic;html=1;rounded=0;exitX=0.484;exitY=1.02;exitDx=0;exitDy=0;exitPerimeter=0;" parent="1" source="lLKAtSu_kbZPJ85H2VV2-92" edge="1">
          <mxGeometry width="50" height="50" relative="1" as="geometry">
            <mxPoint x="1230" y="170" as="sourcePoint" />
            <mxPoint x="1267" y="160" as="targetPoint" />
          </mxGeometry>
        </mxCell>
        <mxCell id="lLKAtSu_kbZPJ85H2VV2-147" value="" style="shape=flexArrow;endArrow=classic;html=1;rounded=0;exitX=-0.005;exitY=0.515;exitDx=0;exitDy=0;exitPerimeter=0;entryX=1.002;entryY=0.533;entryDx=0;entryDy=0;entryPerimeter=0;" parent="1" source="lLKAtSu_kbZPJ85H2VV2-1" edge="1">
          <mxGeometry width="50" height="50" relative="1" as="geometry">
            <mxPoint x="-180" y="-110" as="sourcePoint" />
            <mxPoint x="-358.44000000000005" y="-90.80999999999995" as="targetPoint" />
          </mxGeometry>
        </mxCell>
        <mxCell id="lLKAtSu_kbZPJ85H2VV2-153" value="&lt;font style=&quot;font-size: 48px;&quot;&gt;Artists albums&lt;/font&gt;" style="text;html=1;strokeColor=none;fillColor=none;align=center;verticalAlign=middle;whiteSpace=wrap;rounded=0;" parent="1" vertex="1">
          <mxGeometry x="-1110" y="-420" width="330" height="110" as="geometry" />
        </mxCell>
        <mxCell id="lLKAtSu_kbZPJ85H2VV2-154" value="&lt;span style=&quot;white-space: pre;&quot;&gt;&#x9;&lt;/span&gt;&lt;span style=&quot;white-space: pre;&quot;&gt;&#x9;&lt;span style=&quot;white-space: pre;&quot;&gt;&#x9;&lt;/span&gt;&lt;span style=&quot;white-space: pre;&quot;&gt;&#x9;&lt;/span&gt;&lt;/span&gt;&lt;span style=&quot;white-space: pre;&quot;&gt;&#x9;&lt;/span&gt;artists&lt;span style=&quot;white-space: pre;&quot;&gt;&#x9;&lt;/span&gt;songs&lt;span style=&quot;white-space: pre;&quot;&gt;&#x9;&lt;/span&gt;albums&lt;span style=&quot;white-space: pre;&quot;&gt;&#x9;&lt;/span&gt;&lt;span style=&quot;white-space: pre;&quot;&gt;&#x9;&lt;/span&gt;&lt;span style=&quot;white-space: pre;&quot;&gt;&#x9;&lt;/span&gt;&lt;span style=&quot;white-space: pre;&quot;&gt;&#x9;&lt;/span&gt;Song Requests" style="html=1;shadow=0;dashed=0;shape=mxgraph.bootstrap.rrect;rSize=5;html=1;strokeColor=#C8C8C8;fillColor=#ffffff;whiteSpace=wrap;verticalAlign=top;align=left;fontSize=18;spacing=15;spacingTop=-5;" parent="1" vertex="1">
          <mxGeometry x="-1110" y="-330" width="750" height="440" as="geometry" />
        </mxCell>
        <mxCell id="lLKAtSu_kbZPJ85H2VV2-155" value="" style="shape=line;strokeColor=#dddddd;resizeWidth=1;" parent="lLKAtSu_kbZPJ85H2VV2-154" vertex="1">
          <mxGeometry width="750.0000000000001" height="10" relative="1" as="geometry">
            <mxPoint y="50" as="offset" />
          </mxGeometry>
        </mxCell>
        <mxCell id="lLKAtSu_kbZPJ85H2VV2-156" value="&lt;font face=&quot;Comic Sans MS&quot; style=&quot;font-size: 24px;&quot;&gt;Musify&lt;/font&gt;" style="text;html=1;strokeColor=none;fillColor=none;align=center;verticalAlign=middle;whiteSpace=wrap;rounded=0;" parent="lLKAtSu_kbZPJ85H2VV2-154" vertex="1">
          <mxGeometry x="70.94594594594595" y="10.731707317073171" width="121.62162162162163" height="32.19512195121951" as="geometry" />
        </mxCell>
        <mxCell id="lLKAtSu_kbZPJ85H2VV2-157" value="" style="rounded=0;whiteSpace=wrap;html=1;" parent="lLKAtSu_kbZPJ85H2VV2-154" vertex="1">
          <mxGeometry x="20.270270270270274" y="10.731707317073171" width="30.405405405405407" height="32.19512195121951" as="geometry" />
        </mxCell>
        <mxCell id="lLKAtSu_kbZPJ85H2VV2-158" value="" style="rounded=0;whiteSpace=wrap;html=1;" parent="lLKAtSu_kbZPJ85H2VV2-154" vertex="1">
          <mxGeometry x="283.7837837837838" y="96.58536585365854" width="182.43243243243245" height="118.04878048780489" as="geometry" />
        </mxCell>
        <mxCell id="lLKAtSu_kbZPJ85H2VV2-159" value="" style="rounded=0;whiteSpace=wrap;html=1;" parent="lLKAtSu_kbZPJ85H2VV2-154" vertex="1">
          <mxGeometry x="60.810810810810814" y="96.58536585365854" width="182.43243243243245" height="118.04878048780489" as="geometry" />
        </mxCell>
        <mxCell id="lLKAtSu_kbZPJ85H2VV2-160" value="" style="rounded=0;whiteSpace=wrap;html=1;" parent="lLKAtSu_kbZPJ85H2VV2-154" vertex="1">
          <mxGeometry x="506.7567567567568" y="96.58536585365854" width="182.43243243243245" height="118.04878048780489" as="geometry" />
        </mxCell>
        <mxCell id="lLKAtSu_kbZPJ85H2VV2-161" value="" style="rounded=0;whiteSpace=wrap;html=1;" parent="lLKAtSu_kbZPJ85H2VV2-154" vertex="1">
          <mxGeometry x="60.810810810810814" y="279.0243902439025" width="182.43243243243245" height="118.04878048780489" as="geometry" />
        </mxCell>
        <mxCell id="lLKAtSu_kbZPJ85H2VV2-162" value="" style="rounded=0;whiteSpace=wrap;html=1;" parent="lLKAtSu_kbZPJ85H2VV2-154" vertex="1">
          <mxGeometry x="278.71621621621625" y="279.0243902439025" width="192.56756756756758" height="118.04878048780489" as="geometry" />
        </mxCell>
        <mxCell id="lLKAtSu_kbZPJ85H2VV2-163" value="" style="rounded=0;whiteSpace=wrap;html=1;" parent="lLKAtSu_kbZPJ85H2VV2-154" vertex="1">
          <mxGeometry x="506.7567567567568" y="279.0243902439025" width="182.43243243243245" height="118.04878048780489" as="geometry" />
        </mxCell>
        <mxCell id="lLKAtSu_kbZPJ85H2VV2-164" value="&lt;font style=&quot;font-size: 24px;&quot;&gt;Album picture&lt;/font&gt;" style="text;html=1;strokeColor=none;fillColor=none;align=center;verticalAlign=middle;whiteSpace=wrap;rounded=0;" parent="lLKAtSu_kbZPJ85H2VV2-154" vertex="1">
          <mxGeometry x="81.0810810810811" y="139.51219512195124" width="152.02702702702703" height="32.19512195121951" as="geometry" />
        </mxCell>
        <mxCell id="lLKAtSu_kbZPJ85H2VV2-165" value="&lt;font style=&quot;font-size: 24px;&quot;&gt;Album picture&lt;/font&gt;" style="text;html=1;strokeColor=none;fillColor=none;align=center;verticalAlign=middle;whiteSpace=wrap;rounded=0;" parent="lLKAtSu_kbZPJ85H2VV2-154" vertex="1">
          <mxGeometry x="298.9864864864865" y="139.51048780487804" width="152.02702702702703" height="32.19512195121951" as="geometry" />
        </mxCell>
        <mxCell id="lLKAtSu_kbZPJ85H2VV2-166" value="&lt;font style=&quot;font-size: 24px;&quot;&gt;Album picture&lt;/font&gt;" style="text;html=1;strokeColor=none;fillColor=none;align=center;verticalAlign=middle;whiteSpace=wrap;rounded=0;" parent="lLKAtSu_kbZPJ85H2VV2-154" vertex="1">
          <mxGeometry x="521.9594594594595" y="139.51048780487804" width="152.02702702702703" height="32.19512195121951" as="geometry" />
        </mxCell>
        <mxCell id="lLKAtSu_kbZPJ85H2VV2-167" value="&lt;font style=&quot;font-size: 24px;&quot;&gt;Album picture&lt;/font&gt;" style="text;html=1;strokeColor=none;fillColor=none;align=center;verticalAlign=middle;whiteSpace=wrap;rounded=0;" parent="lLKAtSu_kbZPJ85H2VV2-154" vertex="1">
          <mxGeometry x="76.01351351351352" y="321.9512195121951" width="152.02702702702703" height="32.19512195121951" as="geometry" />
        </mxCell>
        <mxCell id="lLKAtSu_kbZPJ85H2VV2-168" value="&lt;font style=&quot;font-size: 24px;&quot;&gt;Album picture&lt;/font&gt;" style="text;html=1;strokeColor=none;fillColor=none;align=center;verticalAlign=middle;whiteSpace=wrap;rounded=0;" parent="lLKAtSu_kbZPJ85H2VV2-154" vertex="1">
          <mxGeometry x="298.9864864864865" y="321.9512195121951" width="152.02702702702703" height="32.19512195121951" as="geometry" />
        </mxCell>
        <mxCell id="lLKAtSu_kbZPJ85H2VV2-169" value="&lt;font style=&quot;font-size: 24px;&quot;&gt;Album picture&lt;/font&gt;" style="text;html=1;strokeColor=none;fillColor=none;align=center;verticalAlign=middle;whiteSpace=wrap;rounded=0;" parent="lLKAtSu_kbZPJ85H2VV2-154" vertex="1">
          <mxGeometry x="521.9594594594595" y="321.9512195121951" width="152.02702702702703" height="32.19512195121951" as="geometry" />
        </mxCell>
        <mxCell id="lLKAtSu_kbZPJ85H2VV2-170" value="&lt;font style=&quot;font-size: 18px;&quot;&gt;Album Name&lt;/font&gt;" style="text;html=1;strokeColor=none;fillColor=none;align=center;verticalAlign=middle;whiteSpace=wrap;rounded=0;" parent="lLKAtSu_kbZPJ85H2VV2-154" vertex="1">
          <mxGeometry x="60.00081081081081" y="225.3658536585366" width="121.62162162162163" height="32.19512195121951" as="geometry" />
        </mxCell>
        <mxCell id="lLKAtSu_kbZPJ85H2VV2-171" value="&lt;font style=&quot;font-size: 18px;&quot;&gt;Album Name&lt;/font&gt;" style="text;html=1;strokeColor=none;fillColor=none;align=center;verticalAlign=middle;whiteSpace=wrap;rounded=0;" parent="lLKAtSu_kbZPJ85H2VV2-154" vertex="1">
          <mxGeometry x="283.7837837837838" y="225.3658536585366" width="121.62162162162163" height="32.19512195121951" as="geometry" />
        </mxCell>
        <mxCell id="lLKAtSu_kbZPJ85H2VV2-172" value="&lt;font style=&quot;font-size: 18px;&quot;&gt;Album Name&lt;/font&gt;" style="text;html=1;strokeColor=none;fillColor=none;align=center;verticalAlign=middle;whiteSpace=wrap;rounded=0;" parent="lLKAtSu_kbZPJ85H2VV2-154" vertex="1">
          <mxGeometry x="506.7567567567568" y="225.3658536585366" width="121.62162162162163" height="32.19512195121951" as="geometry" />
        </mxCell>
        <mxCell id="lLKAtSu_kbZPJ85H2VV2-173" value="&lt;font style=&quot;font-size: 18px;&quot;&gt;Album Name&lt;/font&gt;" style="text;html=1;strokeColor=none;fillColor=none;align=center;verticalAlign=middle;whiteSpace=wrap;rounded=0;" parent="lLKAtSu_kbZPJ85H2VV2-154" vertex="1">
          <mxGeometry x="60.810810810810814" y="407.8031707317074" width="121.62162162162163" height="32.19512195121951" as="geometry" />
        </mxCell>
        <mxCell id="lLKAtSu_kbZPJ85H2VV2-174" value="&lt;font style=&quot;font-size: 18px;&quot;&gt;Album Name&lt;/font&gt;" style="text;html=1;strokeColor=none;fillColor=none;align=center;verticalAlign=middle;whiteSpace=wrap;rounded=0;" parent="lLKAtSu_kbZPJ85H2VV2-154" vertex="1">
          <mxGeometry x="278.72" y="407.8" width="120" height="30" as="geometry" />
        </mxCell>
        <mxCell id="lLKAtSu_kbZPJ85H2VV2-175" value="&lt;font style=&quot;font-size: 18px;&quot;&gt;Album Name&lt;/font&gt;" style="text;html=1;strokeColor=none;fillColor=none;align=center;verticalAlign=middle;whiteSpace=wrap;rounded=0;" parent="lLKAtSu_kbZPJ85H2VV2-154" vertex="1">
          <mxGeometry x="506.76" y="407.8" width="120" height="30" as="geometry" />
        </mxCell>
        <mxCell id="lLKAtSu_kbZPJ85H2VV2-176" style="edgeStyle=orthogonalEdgeStyle;rounded=0;orthogonalLoop=1;jettySize=auto;html=1;exitX=1;exitY=0.75;exitDx=0;exitDy=0;entryX=1;entryY=0.5;entryDx=0;entryDy=0;" parent="lLKAtSu_kbZPJ85H2VV2-154" source="lLKAtSu_kbZPJ85H2VV2-170" target="lLKAtSu_kbZPJ85H2VV2-170" edge="1">
          <mxGeometry relative="1" as="geometry" />
        </mxCell>
        <mxCell id="lLKAtSu_kbZPJ85H2VV2-177" value="" style="shape=flexArrow;endArrow=classic;html=1;rounded=0;exitX=0.503;exitY=1.005;exitDx=0;exitDy=0;exitPerimeter=0;entryX=0.003;entryY=0.267;entryDx=0;entryDy=0;entryPerimeter=0;" parent="1" source="lLKAtSu_kbZPJ85H2VV2-154" target="lLKAtSu_kbZPJ85H2VV2-125" edge="1">
          <mxGeometry width="50" height="50" relative="1" as="geometry">
            <mxPoint x="-710" y="150" as="sourcePoint" />
            <mxPoint x="1690" y="410" as="targetPoint" />
            <Array as="points">
              <mxPoint x="-733" y="390" />
            </Array>
          </mxGeometry>
        </mxCell>
        <mxCell id="lLKAtSu_kbZPJ85H2VV2-178" value="&lt;font style=&quot;font-size: 48px;&quot;&gt;Song Request&lt;/font&gt;" style="text;html=1;strokeColor=none;fillColor=none;align=center;verticalAlign=middle;whiteSpace=wrap;rounded=0;" parent="1" vertex="1">
          <mxGeometry x="2740" y="-410" width="340" height="110" as="geometry" />
        </mxCell>
        <mxCell id="YLMU03lh9qMk4fozmKOO-55" value="" style="html=1;verticalLabelPosition=bottom;align=center;labelBackgroundColor=#ffffff;verticalAlign=top;strokeWidth=2;strokeColor=#0080F0;shadow=0;dashed=0;shape=mxgraph.ios7.icons.mail;" vertex="1" parent="1">
          <mxGeometry x="3960" y="-70" width="210" height="140.5" as="geometry" />
        </mxCell>
        <mxCell id="YLMU03lh9qMk4fozmKOO-56" value="" style="shape=flexArrow;endArrow=classic;html=1;rounded=0;exitX=0.998;exitY=0.552;exitDx=0;exitDy=0;exitPerimeter=0;" edge="1" parent="1" source="lLKAtSu_kbZPJ85H2VV2-95">
          <mxGeometry width="50" height="50" relative="1" as="geometry">
            <mxPoint x="3660" y="50" as="sourcePoint" />
            <mxPoint x="3960" as="targetPoint" />
          </mxGeometry>
        </mxCell>
      </root>
    </mxGraphModel>
  </diagram>
</mxfile>
